HIERARCHY
ROOT Hips
{
	OFFSET 0.000000 83.214638 0.000000
	CHANNELS 6 Xposition Yposition Zposition Xrotation Yrotation Zrotation
	JOINT Pelvis
	{
		OFFSET 0.000000 0.000000 0.000000
		CHANNELS 3 Xrotation Yrotation Zrotation
		JOINT LeftUpLeg
		{
			OFFSET 8.479700 -4.795502 -0.379100
			CHANNELS 3 Xrotation Yrotation Zrotation
			JOINT LeftLeg
			{
				OFFSET 0.024144 -32.555107 0.112900
				CHANNELS 3 Xrotation Yrotation Zrotation
				JOINT LeftFoot
				{
					OFFSET -0.024144 -32.638630 -3.012600
					CHANNELS 3 Xrotation Yrotation Zrotation
					JOINT LeftToeBase
					{
						OFFSET 0.970200 -13.225400 11.864200
						CHANNELS 3 Xrotation Yrotation Zrotation
						End Site
						{
							OFFSET 0.000000 12.319262 0.000000
						}
					}
					JOINT LFootTongue
					{
						OFFSET 1.142400 -1.059800 6.665200
						CHANNELS 3 Xrotation Yrotation Zrotation
						End Site
						{
							OFFSET 0.000000 12.319262 0.000000
						}
					}
				}
				JOINT LeftPantLeg
				{
					OFFSET 0.918482 -16.533964 -2.284700
					CHANNELS 3 Xrotation Yrotation Zrotation
					End Site
					{
						OFFSET 0.350399 24.744368 0.000000
					}
				}
			}
		}
		JOINT RightUpLeg
		{
			OFFSET -8.479700 -4.795502 -0.379100
			CHANNELS 3 Xrotation Yrotation Zrotation
			JOINT RightLeg
			{
				OFFSET -0.023144 -32.555092 0.112900
				CHANNELS 3 Xrotation Yrotation Zrotation
				JOINT RightFoot
				{
					OFFSET 0.023144 -32.638641 -3.012700
					CHANNELS 3 Xrotation Yrotation Zrotation
					JOINT RightToeBase
					{
						OFFSET -0.970200 -13.225400 11.864200
						CHANNELS 3 Xrotation Yrotation Zrotation
						End Site
						{
							OFFSET 0.000000 12.319244 0.000000
						}
					}
					JOINT RFootTongue
					{
						OFFSET -1.142200 -1.059800 6.665200
						CHANNELS 3 Xrotation Yrotation Zrotation
						End Site
						{
							OFFSET 0.000000 12.319243 0.000000
						}
					}
				}
				JOINT RightPantLeg
				{
					OFFSET -0.919482 -16.533978 -2.284800
					CHANNELS 3 Xrotation Yrotation Zrotation
					End Site
					{
						OFFSET -0.350400 24.744419 0.000000
					}
				}
			}
		}
	}
	JOINT Spine
	{
		OFFSET 0.000000 7.722000 1.166200
		CHANNELS 3 Xrotation Yrotation Zrotation
		JOINT Spine1
		{
			OFFSET 0.000000 12.024101 0.248800
			CHANNELS 3 Xrotation Yrotation Zrotation
			JOINT Spine2
			{
				OFFSET 0.000000 11.502998 -0.491200
				CHANNELS 3 Xrotation Yrotation Zrotation
				JOINT Neck
				{
					OFFSET 0.000000 18.430702 -3.123100
					CHANNELS 3 Xrotation Yrotation Zrotation
					JOINT Head
					{
						OFFSET 0.000000 9.051102 1.034000
						CHANNELS 3 Xrotation Yrotation Zrotation
						JOINT HairB
						{
							OFFSET 0.208400 24.786102 24.822300
							CHANNELS 3 Xrotation Yrotation Zrotation
							End Site
							{
								OFFSET 0.000000 32.263779 0.000000
							}
						}
						JOINT HairA
						{
							OFFSET -7.081100 24.428299 23.196600
							CHANNELS 3 Xrotation Yrotation Zrotation
							End Site
							{
								OFFSET 0.000000 32.263779 0.000000
							}
						}
						JOINT Hat
						{
							OFFSET 16.728800 15.048294 -15.439601
							CHANNELS 3 Xrotation Yrotation Zrotation
							End Site
							{
								OFFSET 0.000000 32.263779 0.000000
							}
						}
					}
				}
				JOINT LeftShoulder
				{
					OFFSET 6.197800 13.665199 -4.064700
					CHANNELS 3 Xrotation Yrotation Zrotation
					JOINT LeftArm
					{
						OFFSET 7.778100 -0.187103 -1.709300
						CHANNELS 3 Xrotation Yrotation Zrotation
						JOINT LeftForeArm
						{
							OFFSET 22.049376 0.000000 0.000000
							CHANNELS 3 Xrotation Yrotation Zrotation
							JOINT LeftHand
							{
								OFFSET 23.009392 0.000000 0.000000
								CHANNELS 3 Xrotation Yrotation Zrotation
								JOINT LeftHandThumb1
								{
									OFFSET 3.507191 -2.063065 3.133727
									CHANNELS 3 Xrotation Yrotation Zrotation
									JOINT LeftHandThumb2
									{
										OFFSET 3.101337 -1.790558 1.790558
										CHANNELS 3 Xrotation Yrotation Zrotation
										JOINT LeftHandThumb3
										{
											OFFSET 3.058640 -1.765907 1.765906
											CHANNELS 3 Xrotation Yrotation Zrotation
											End Site
											{
												OFFSET -0.415260 3.926476 -0.049563
											}
										}
									}
								}
								JOINT LeftHandIndex1
								{
									OFFSET 11.334419 -0.901459 3.706815
									CHANNELS 3 Xrotation Yrotation Zrotation
									JOINT LeftHandIndex2
									{
										OFFSET 3.283112 0.000000 0.000000
										CHANNELS 3 Xrotation Yrotation Zrotation
										JOINT LeftHandIndex3
										{
											OFFSET 3.323853 0.000000 0.000000
											CHANNELS 3 Xrotation Yrotation Zrotation
											End Site
											{
												OFFSET -1.135597 3.097809 0.402452
											}
										}
									}
								}
								JOINT LeftHandMiddle1
								{
									OFFSET 11.335861 0.000000 0.000000
									CHANNELS 3 Xrotation Yrotation Zrotation
									JOINT LeftHandMiddle2
									{
										OFFSET 3.410492 0.000000 0.000000
										CHANNELS 3 Xrotation Yrotation Zrotation
										JOINT LeftHandMiddle3
										{
											OFFSET 3.312172 0.000000 0.000000
											CHANNELS 3 Xrotation Yrotation Zrotation
											End Site
											{
												OFFSET -1.150200 3.080154 0.400270
											}
										}
									}
								}
								JOINT LeftHandRing1
								{
									OFFSET 11.514786 -0.013176 -3.003090
									CHANNELS 3 Xrotation Yrotation Zrotation
									JOINT LeftHandRing2
									{
										OFFSET 3.053307 0.000000 0.000000
										CHANNELS 3 Xrotation Yrotation Zrotation
										JOINT LeftHandRing3
										{
											OFFSET 3.295807 0.000000 0.000000
											CHANNELS 3 Xrotation Yrotation Zrotation
											End Site
											{
												OFFSET -1.281006 3.013344 0.375733
											}
										}
									}
								}
								JOINT LeftHandPinky1
								{
									OFFSET 10.518692 -0.960396 -5.730441
									CHANNELS 3 Xrotation Yrotation Zrotation
									JOINT LeftHandPinky2
									{
										OFFSET 2.861649 0.000000 0.000000
										CHANNELS 3 Xrotation Yrotation Zrotation
										JOINT LeftHandPinky3
										{
											OFFSET 2.863380 0.000000 0.000000
											CHANNELS 3 Xrotation Yrotation Zrotation
											End Site
											{
												OFFSET -0.843597 2.711159 0.369971
											}
										}
									}
								}
							}
							JOINT LSleeve
							{
								OFFSET 6.676277 -0.344902 -1.011730
								CHANNELS 3 Xrotation Yrotation Zrotation
								End Site
								{
									OFFSET 0.000000 14.885353 0.000000
								}
							}
						}
					}
				}
				JOINT RightShoulder
				{
					OFFSET -6.197800 13.665199 -4.064700
					CHANNELS 3 Xrotation Yrotation Zrotation
					JOINT RightArm
					{
						OFFSET -7.778100 -0.187103 -1.709300
						CHANNELS 3 Xrotation Yrotation Zrotation
						JOINT RightForeArm
						{
							OFFSET -22.049376 0.000000 0.000000
							CHANNELS 3 Xrotation Yrotation Zrotation
							JOINT RightHand
							{
								OFFSET -23.009392 0.000000 0.000000
								CHANNELS 3 Xrotation Yrotation Zrotation
								JOINT RightHandThumb1
								{
									OFFSET -3.507191 -2.063065 3.133727
									CHANNELS 3 Xrotation Yrotation Zrotation
									JOINT RightHandThumb2
									{
										OFFSET -3.101337 -1.790558 1.790558
										CHANNELS 3 Xrotation Yrotation Zrotation
										JOINT RightHandThumb3
										{
											OFFSET -3.058640 -1.765907 1.765906
											CHANNELS 3 Xrotation Yrotation Zrotation
											End Site
											{
												OFFSET 0.415260 3.926476 -0.049563
											}
										}
									}
								}
								JOINT RightHandIndex1
								{
									OFFSET -11.334419 -0.901459 3.706815
									CHANNELS 3 Xrotation Yrotation Zrotation
									JOINT RightHandIndex2
									{
										OFFSET -3.283112 0.000000 0.000000
										CHANNELS 3 Xrotation Yrotation Zrotation
										JOINT RightHandIndex3
										{
											OFFSET -3.323853 0.000000 0.000000
											CHANNELS 3 Xrotation Yrotation Zrotation
											End Site
											{
												OFFSET 1.135597 3.097809 0.402452
											}
										}
									}
								}
								JOINT RightHandMiddle1
								{
									OFFSET -11.335861 0.000000 0.000000
									CHANNELS 3 Xrotation Yrotation Zrotation
									JOINT RightHandMiddle2
									{
										OFFSET -3.410492 0.000000 0.000000
										CHANNELS 3 Xrotation Yrotation Zrotation
										JOINT RightHandMiddle3
										{
											OFFSET -3.312172 0.000000 0.000000
											CHANNELS 3 Xrotation Yrotation Zrotation
											End Site
											{
												OFFSET 1.150200 3.080154 0.400270
											}
										}
									}
								}
								JOINT RightHandRing1
								{
									OFFSET -11.514786 -0.013176 -3.003090
									CHANNELS 3 Xrotation Yrotation Zrotation
									JOINT RightHandRing2
									{
										OFFSET -3.053307 0.000000 0.000000
										CHANNELS 3 Xrotation Yrotation Zrotation
										JOINT RightHandRing3
										{
											OFFSET -3.295807 0.000000 0.000000
											CHANNELS 3 Xrotation Yrotation Zrotation
											End Site
											{
												OFFSET 1.281006 3.013344 0.375733
											}
										}
									}
								}
								JOINT RightHandPinky1
								{
									OFFSET -10.518692 -0.960396 -5.730441
									CHANNELS 3 Xrotation Yrotation Zrotation
									JOINT RightHandPinky2
									{
										OFFSET -2.861649 0.000000 0.000000
										CHANNELS 3 Xrotation Yrotation Zrotation
										JOINT RightHandPinky3
										{
											OFFSET -2.863380 0.000000 0.000000
											CHANNELS 3 Xrotation Yrotation Zrotation
											End Site
											{
												OFFSET 0.843597 2.711159 0.369971
											}
										}
									}
								}
							}
							JOINT RSleeve
							{
								OFFSET -6.676277 -0.344902 -1.011730
								CHANNELS 3 Xrotation Yrotation Zrotation
								End Site
								{
									OFFSET 0.000000 14.885353 0.000000
								}
							}
						}
					}
				}
				JOINT Backpack
				{
					OFFSET 0.000000 -2.471497 36.677502
					CHANNELS 3 Xrotation Yrotation Zrotation
					End Site
					{
						OFFSET 0.000000 20.427315 0.000000
					}
				}
				JOINT Hood
				{
					OFFSET 0.000000 18.754097 -10.431000
					CHANNELS 3 Xrotation Yrotation Zrotation
					JOINT Hood1
					{
						OFFSET 0.000000 -5.011002 -7.685901
						CHANNELS 3 Xrotation Yrotation Zrotation
						End Site
						{
							OFFSET 0.000000 9.175140 0.000000
						}
					}
				}
				JOINT LHoodieString
				{
					OFFSET 5.250500 16.397697 3.089900
					CHANNELS 3 Xrotation Yrotation Zrotation
					JOINT LHoodieString1
					{
						OFFSET 0.257700 -6.364304 3.694600
						CHANNELS 3 Xrotation Yrotation Zrotation
						JOINT LHoodieString2
						{
							OFFSET 0.000000 -9.643799 2.679100
							CHANNELS 3 Xrotation Yrotation Zrotation
							End Site
							{
								OFFSET 0.000000 10.009018 0.000000
							}
						}
					}
				}
				JOINT RHoodieString
				{
					OFFSET -5.250500 16.397697 3.089900
					CHANNELS 3 Xrotation Yrotation Zrotation
					JOINT RHoodieString1
					{
						OFFSET -0.257700 -6.364304 3.694600
						CHANNELS 3 Xrotation Yrotation Zrotation
						JOINT RHoodieString2
						{
							OFFSET 0.000000 -9.643799 2.679100
							CHANNELS 3 Xrotation Yrotation Zrotation
							End Site
							{
								OFFSET 0.000000 10.009018 0.000000
							}
						}
					}
				}
			}
			JOINT LBackpack_Strap
			{
				OFFSET 15.223200 -7.719803 -6.610900
				CHANNELS 3 Xrotation Yrotation Zrotation
				End Site
				{
					OFFSET 0.000000 16.040596 0.000000
				}
			}
			JOINT RBackpack_Strap
			{
				OFFSET -15.223000 -7.719803 -6.610900
				CHANNELS 3 Xrotation Yrotation Zrotation
				End Site
				{
					OFFSET 0.000000 16.040596 0.000000
				}
			}
		}
	}
	JOINT BoyFacialAnim_Joint
	{
		OFFSET 1.000000 -82.208099 -1.550900
		CHANNELS 3 Xrotation Yrotation Zrotation
		End Site
		{
			OFFSET 0.000000 30.012791 0.000000
		}
	}
}
MOTION
Frames: 4
Frame Time: 0.016667
-5.457011 81.995010 -6.703638 4.315055 -4.757377 0.832650 -0.000001 -0.000000 -0.000000 -36.872804 16.728088 8.134270 50.763533 -0.828167 9.222429 0.533586 0.403145 -7.734974 0.000002 -0.000001 -0.000000 0.000002 -0.000001 -0.000000 -0.000001 -0.000000 0.000001 -12.901338 -21.088165 1.417575 24.670891 7.240906 -3.685349 -18.767451 0.377987 -1.881759 -0.000000 0.000002 0.000000 -0.000000 0.000002 0.000000 -0.000000 -0.000000 0.000000 5.080529 3.917392 0.010531 2.991727 2.867183 -1.819720 2.926903 2.833091 -1.954512 -9.493066 -0.565100 0.882845 -20.378284 -2.771352 5.070003 0.000000 -0.000000 0.000000 0.000000 -0.000000 0.000000 0.000000 -0.000000 0.000000 0.458517 2.606267 -6.757464 25.580775 -52.523304 -38.981580 0.000005 -19.285246 -0.000004 -48.778264 -12.182562 -11.665780 -1.765981 13.580031 7.641523 4.742577 17.876570 1.476429 0.000000 0.000001 0.000001 0.103567 1.192121 -9.929399 0.103563 1.192125 -9.929403 -0.000001 0.000001 -0.000000 0.103237 1.190225 -9.913399 0.103900 1.194028 -9.945388 -0.000000 -0.000000 -0.000002 0.103569 1.192118 -9.929401 0.103557 1.192124 -9.929416 0.000002 -0.000003 0.000001 0.787126 5.188581 -9.457042 0.096221 -2.863094 -10.432520 0.000001 0.000002 0.000000 0.000002 0.000001 -0.000000 1.523275 1.245584 10.362046 10.130012 46.984994 46.447380 -0.000014 29.255941 0.000003 -32.820575 0.835415 -2.238343 -2.082034 -13.461643 -8.150987 5.520683 -18.558739 -0.893698 -0.000000 -0.000001 0.000000 0.104530 -1.203686 9.928043 0.104553 -1.203679 9.928031 -0.000001 -0.000001 0.000002 0.104537 -1.203687 9.928044 0.104553 -1.203682 9.928030 -0.000002 0.000002 0.000002 0.104534 -1.203678 9.928052 0.104556 -1.203679 9.928021 0.000000 0.000000 -0.000002 0.104541 -1.203685 9.928034 0.104552 -1.203670 9.928037 0.000002 -0.000001 0.000000 0.000001 -0.000001 0.000002 0.000002 0.000000 0.000000 0.000002 0.000000 0.000000 0.000002 0.000000 0.000000 0.000002 0.000000 0.000000 0.000002 0.000000 -0.000000 -0.000000 0.000000 -0.000000 0.000002 0.000000 0.000000 0.000002 0.000000 -0.000000 -0.000000 0.000000 -0.000000 0.000001 -0.000000 -0.000000 0.000001 -0.000000 -0.000000 -0.000001 -0.000000 -0.000000 
-5.288416 82.110718 -5.515038 4.397652 -5.163559 0.992031 -0.000000 -0.000000 -0.000000 -37.343387 16.966670 8.125908 46.863533 -2.014070 9.273144 -0.242969 0.527621 -8.865603 0.000000 0.000000 -0.000000 0.000000 0.000000 -0.000000 0.000001 0.000002 -0.000000 -11.458016 -20.706502 0.894634 23.299247 7.541733 -2.974959 -18.724906 0.347265 -1.734652 -0.000000 -0.000001 -0.000000 -0.000000 -0.000001 -0.000000 0.000001 -0.000000 -0.000000 5.069587 4.158501 -0.295736 2.962542 3.100124 -1.886527 2.889890 3.064184 -2.034033 -9.523293 -0.578629 0.921802 -20.831834 -2.752601 4.825273 -0.000002 -0.000000 -0.000000 -0.000002 -0.000000 -0.000000 -0.000002 -0.000000 -0.000000 0.455201 2.689156 -6.796492 25.277210 -51.870502 -39.495962 0.000011 -18.901801 -0.000001 -49.654772 -12.159136 -13.005455 -1.765984 13.580030 7.641522 4.742576 17.876574 1.476429 0.000000 0.000000 -0.000000 0.103565 1.192126 -9.929396 0.103563 1.192123 -9.929405 -0.000001 -0.000001 -0.000000 0.103234 1.190227 -9.913399 0.103894 1.194029 -9.945390 -0.000002 -0.000000 0.000000 0.103565 1.192119 -9.929395 0.103554 1.192126 -9.929415 -0.000000 -0.000000 -0.000000 0.787124 5.188584 -9.457040 0.096217 -2.863095 -10.432512 0.000000 -0.000002 -0.000001 -0.000000 0.000000 -0.000000 1.530165 1.252818 10.429243 9.940796 46.715595 45.932575 -0.000002 30.649593 0.000010 -33.746356 0.701285 -2.595722 -2.082032 -13.461638 -8.150986 5.520681 -18.558741 -0.893692 0.000001 0.000001 0.000000 0.104536 -1.203681 9.928050 0.104555 -1.203682 9.928031 0.000002 -0.000001 -0.000000 0.104538 -1.203684 9.928045 0.104556 -1.203681 9.928030 -0.000004 -0.000001 -0.000002 0.104535 -1.203679 9.928055 0.104558 -1.203677 9.928015 -0.000004 0.000004 -0.000001 0.104537 -1.203687 9.928034 0.104553 -1.203668 9.928036 -0.000000 -0.000000 -0.000002 0.000002 -0.000000 -0.000000 -0.000002 0.000000 -0.000000 -0.000002 0.000000 -0.000000 -0.000002 0.000000 -0.000000 -0.000002 0.000000 -0.000000 -0.000002 0.000000 -0.000000 -0.000002 0.000000 -0.000000 -0.000002 0.000000 -0.000000 -0.000002 0.000000 -0.000000 -0.000002 0.000000 -0.000000 0.000001 0.000000 0.000000 0.000001 0.000000 0.000000 -0.000000 -0.000000 -0.000000 
-5.105409 82.199013 -4.349603 4.599159 -5.527411 1.142659 -0.000000 0.000000 0.000000 -37.787960 17.776966 8.182977 42.430836 -3.318964 9.404333 -0.828102 0.661397 -10.193226 0.000001 -0.000000 -0.000000 0.000001 -0.000000 -0.000000 -0.000001 -0.000001 -0.000000 -10.201501 -20.388412 0.280316 21.919033 7.618747 -2.174821 -18.554414 0.587115 -1.461309 0.000000 0.000000 -0.000000 0.000000 0.000000 -0.000000 0.000001 -0.000001 0.000001 5.020515 4.360165 -0.544440 2.900548 3.300144 -1.941386 2.820746 3.261077 -2.100405 -9.571883 -0.591770 0.937391 -21.470201 -2.764093 4.545623 0.000001 -0.000000 -0.000000 0.000001 -0.000000 -0.000000 0.000001 -0.000000 -0.000000 0.445963 2.890030 -6.882940 25.092939 -51.446252 -39.866424 0.000002 -18.420139 0.000007 -49.894341 -11.995686 -13.522575 -1.765981 13.580031 7.641522 4.742576 17.876570 1.476430 -0.000001 0.000000 -0.000001 0.103568 1.192120 -9.929395 0.103561 1.192129 -9.929403 -0.000002 0.000003 -0.000001 0.103237 1.190226 -9.913399 0.103896 1.194024 -9.945393 0.000001 -0.000001 -0.000000 0.103567 1.192119 -9.929393 0.103557 1.192126 -9.929417 -0.000001 -0.000002 0.000001 0.787128 5.188581 -9.457036 0.096220 -2.863097 -10.432517 0.000002 -0.000003 0.000001 -0.000002 0.000000 -0.000001 1.532194 1.257833 10.441980 9.610624 46.464889 45.649552 -0.000004 31.858430 0.000001 -34.274398 0.711795 -3.232377 -2.082040 -13.461639 -8.150986 5.520680 -18.558737 -0.893691 -0.000001 -0.000001 0.000002 0.104533 -1.203685 9.928049 0.104555 -1.203681 9.928027 0.000002 -0.000001 0.000002 0.104534 -1.203686 9.928041 0.104551 -1.203682 9.928033 0.000003 0.000002 0.000000 0.104531 -1.203678 9.928050 0.104554 -1.203676 9.928017 -0.000001 0.000004 -0.000001 0.104534 -1.203683 9.928033 0.104550 -1.203672 9.928035 0.000001 0.000004 -0.000001 0.000001 -0.000003 -0.000000 0.000001 0.000000 -0.000000 0.000001 0.000000 -0.000000 0.000001 0.000000 -0.000000 0.000001 0.000000 -0.000000 0.000001 0.000000 -0.000000 -0.000001 -0.000000 -0.000000 0.000001 0.000000 -0.000000 0.000001 0.000000 -0.000000 -0.000001 -0.000000 -0.000000 -0.000000 -0.000000 0.000000 -0.000000 -0.000000 0.000000 -0.000000 0.000000 0.000000 
-4.909628 82.252991 -3.194694 4.895368 -5.848491 1.275176 -0.000000 -0.000000 -0.000000 -38.136050 19.201400 8.281876 37.439982 -4.620872 9.537602 -1.282666 0.798240 -11.591018 0.000000 0.000000 0.000000 0.000000 0.000000 0.000000 0.000000 -0.000001 -0.000001 -9.171596 -20.094575 -0.307646 20.746754 7.670499 -1.407379 -18.379067 0.841396 -1.356879 -0.000000 0.000001 -0.000000 -0.000000 0.000001 -0.000000 -0.000003 -0.000000 0.000000 4.926134 4.525457 -0.711014 2.803745 3.466849 -1.977863 2.717947 3.423201 -2.147115 -9.647235 -0.596480 0.917443 -22.164162 -2.763896 4.201635 -0.000002 -0.000000 0.000000 -0.000002 -0.000000 0.000000 -0.000002 -0.000000 0.000000 0.430257 3.192386 -7.009341 25.095683 -51.318486 -40.087248 -0.000004 -17.771215 -0.000010 -49.839716 -11.864173 -13.380645 -1.765982 13.580033 7.641523 4.742576 17.876572 1.476429 -0.000000 0.000000 -0.000000 0.103569 1.192123 -9.929396 0.103560 1.192129 -9.929406 -0.000001 0.000003 0.000000 0.103237 1.190227 -9.913395 0.103895 1.194023 -9.945390 -0.000000 -0.000001 -0.000002 0.103567 1.192116 -9.929399 0.103555 1.192125 -9.929413 0.000000 -0.000002 0.000003 0.787128 5.188581 -9.457038 0.096219 -2.863095 -10.432517 0.000000 0.000000 0.000001 0.000001 0.000000 -0.000000 1.527132 1.258453 10.378017 9.134256 46.242122 45.624612 -0.000002 32.823109 0.000009 -34.152267 0.875201 -4.189113 -2.082036 -13.461639 -8.150985 5.520682 -18.558737 -0.893694 -0.000002 0.000000 0.000003 0.104532 -1.203683 9.928050 0.104555 -1.203678 9.928031 -0.000000 -0.000002 0.000003 0.104538 -1.203686 9.928044 0.104556 -1.203682 9.928033 0.000000 0.000001 0.000000 0.104533 -1.203676 9.928051 0.104557 -1.203685 9.928019 -0.000005 0.000004 -0.000003 0.104537 -1.203681 9.928035 0.104549 -1.203674 9.928037 0.000003 -0.000001 -0.000002 -0.000001 -0.000001 0.000001 0.000002 0.000000 -0.000000 0.000002 0.000000 -0.000000 0.000002 0.000000 -0.000000 0.000002 0.000000 -0.000000 0.000002 0.000000 -0.000000 0.000001 0.000000 -0.000000 0.000002 0.000000 -0.000000 0.000002 0.000000 -0.000000 0.000001 0.000000 -0.000000 -0.000000 -0.000000 -0.000000 -0.000000 -0.000000 -0.000000 -0.000000 -0.000000 -0.000000 
